<svg xmlns="http://www.w3.org/2000/svg" xmlns:xlink="http://www.w3.org/1999/xlink" width="2000" zoomAndPan="magnify" viewBox="0 0 1500 1499.999933" height="2000" preserveAspectRatio="xMidYMid meet" version="1.0"><defs><clipPath id="af4041733a"><path d="M 777 102.1875 L 1500 102.1875 L 1500 690 L 777 690 Z M 777 102.1875 " clip-rule="nonzero"/></clipPath><clipPath id="10e6f728e5"><path d="M 534 1285 L 933 1285 L 933 1397.941406 L 534 1397.941406 Z M 534 1285 " clip-rule="nonzero"/></clipPath></defs><rect x="-150" width="1800" fill="#ffffff" y="-149.999993" height="1799.99992" fill-opacity="1"/><rect x="-150" width="1800" fill="#ffffff" y="-149.999993" height="1799.99992" fill-opacity="1"/><path fill="#059669" d="M 733.777344 380.796875 C 668.363281 380.796875 612.074219 419.207031 585.199219 474.519531 L 881.84375 474.519531 C 854.96875 419.207031 798.683594 380.796875 733.777344 380.796875 " fill-opacity="1" fill-rule="nonzero"/><path fill="#059669" d="M 1347.84375 589.75 L 1347.84375 724.96875 L 1384.875 724.96875 L 1384.875 589.75 C 1378.78125 591.808594 1372.703125 592.824219 1366.113281 592.824219 C 1359.511719 592.824219 1353.429688 591.808594 1347.84375 589.75 " fill-opacity="1" fill-rule="nonzero"/><path fill="#059669" d="M 963.992188 813.0625 C 1001.007812 813.0625 1030.421875 842.761719 1030.421875 879.636719 C 1030.421875 917.03125 1001.007812 946.730469 963.992188 946.730469 C 927.480469 946.730469 898.066406 917.03125 898.066406 879.636719 C 898.066406 842.761719 927.480469 813.0625 963.992188 813.0625 Z M 835.699219 879.636719 C 835.699219 951.859375 892.988281 1009.722656 963.992188 1009.722656 C 1035.484375 1009.722656 1092.789062 951.859375 1092.789062 879.636719 C 1092.789062 807.933594 1035.484375 750.058594 963.992188 750.058594 C 892.988281 750.058594 835.699219 807.933594 835.699219 879.636719 " fill-opacity="1" fill-rule="nonzero"/><g clip-path="url(#af4041733a)"><path fill="#059669" d="M 939.640625 429.964844 L 1048.675781 429.964844 C 1039.039062 524.191406 1001.007812 608.199219 956.386719 689.628906 C 1026.867188 645.074219 1122.203125 578.996094 1187.617188 429.964844 L 1337.703125 429.964844 C 1426.957031 429.964844 1499.976562 356.214844 1499.976562 266.074219 C 1499.976562 175.933594 1426.957031 102.175781 1337.703125 102.175781 L 939.640625 102.175781 C 850.402344 102.175781 777.382812 175.933594 777.382812 266.074219 C 777.382812 356.214844 850.402344 429.964844 939.640625 429.964844 " fill-opacity="1" fill-rule="nonzero"/></g><path fill="#059669" d="M 1425.433594 517.539062 C 1425.433594 484.765625 1398.558594 458.125 1366.113281 458.125 C 1333.652344 458.125 1307.285156 484.765625 1307.285156 517.539062 C 1307.285156 550.832031 1333.652344 577.457031 1366.113281 577.457031 C 1398.558594 577.457031 1425.433594 550.832031 1425.433594 517.539062 " fill-opacity="1" fill-rule="nonzero"/><path fill="#059669" d="M 123.25 740.332031 L 58.34375 740.332031 C 25.882812 740.332031 0.0234375 766.957031 0.0234375 799.234375 L 0.0234375 960.558594 C 0.0234375 992.824219 25.882812 1019.460938 58.34375 1019.460938 L 123.25 1019.460938 C 106.519531 975.921875 97.390625 928.800781 97.390625 879.636719 C 97.390625 830.980469 106.519531 783.859375 123.25 740.332031 " fill-opacity="1" fill-rule="nonzero"/><path fill="#059669" d="M 100.933594 577.457031 C 133.390625 577.457031 159.757812 550.832031 159.757812 517.539062 C 159.757812 484.765625 133.390625 458.125 100.933594 458.125 C 68.484375 458.125 42.121094 484.765625 42.121094 517.539062 C 42.121094 550.832031 68.484375 577.457031 100.933594 577.457031 " fill-opacity="1" fill-rule="nonzero"/><path fill="#059669" d="M 1399.574219 740.332031 L 1343.796875 740.332031 C 1360.527344 783.859375 1369.65625 830.980469 1369.65625 879.636719 C 1369.65625 928.800781 1360.527344 975.921875 1343.796875 1019.460938 L 1399.574219 1019.460938 C 1431.527344 1019.460938 1457.882812 992.824219 1457.882812 960.558594 L 1457.882812 799.234375 C 1457.882812 766.957031 1431.527344 740.332031 1399.574219 740.332031 " fill-opacity="1" fill-rule="nonzero"/><g clip-path="url(#10e6f728e5)"><path fill="#059669" d="M 534.484375 1397.941406 L 932.546875 1397.941406 L 932.546875 1285.273438 L 534.484375 1285.273438 L 534.484375 1397.941406 " fill-opacity="1" fill-rule="nonzero"/></g><path fill="#059669" d="M 1147.550781 534.960938 C 1122.710938 571.3125 1094.3125 602.5625 1061.34375 631.753906 C 1160.234375 669.65625 1231.222656 766.957031 1231.222656 879.636719 C 1231.222656 1026.117188 1113.074219 1145.449219 968.039062 1145.449219 L 498.992188 1145.449219 C 353.972656 1145.449219 235.8125 1026.117188 235.8125 879.636719 C 235.8125 733.675781 353.972656 614.332031 498.992188 614.332031 L 968.039062 614.332031 C 971.59375 614.332031 974.640625 614.332031 977.6875 614.332031 C 995.929688 575.414062 1011.660156 535.46875 1021.800781 493.476562 C 1004.550781 490.910156 986.308594 489.882812 968.039062 489.882812 L 498.992188 489.882812 C 286.523438 489.882812 112.597656 665.046875 112.597656 879.636719 C 112.597656 1094.226562 286.523438 1269.910156 498.992188 1269.910156 L 968.039062 1269.910156 C 1180.507812 1269.910156 1354.445312 1094.226562 1354.445312 879.636719 C 1354.445312 730.605469 1270.269531 600.519531 1147.550781 534.960938 " fill-opacity="1" fill-rule="nonzero"/><path fill="#059669" d="M 82.679688 589.75 L 82.679688 724.96875 L 119.1875 724.96875 L 119.1875 589.75 C 113.613281 591.808594 107.519531 592.824219 100.933594 592.824219 C 94.34375 592.824219 88.25 591.808594 82.679688 589.75 " fill-opacity="1" fill-rule="nonzero"/><path fill="#059669" d="M 568.976562 879.636719 C 568.976562 917.03125 539.5625 946.730469 503.054688 946.730469 C 466.039062 946.730469 436.625 917.03125 436.625 879.636719 C 436.625 842.761719 466.039062 813.0625 503.054688 813.0625 C 539.5625 813.0625 568.976562 842.761719 568.976562 879.636719 Z M 374.257812 879.636719 C 374.257812 951.859375 431.546875 1009.722656 503.054688 1009.722656 C 574.042969 1009.722656 631.851562 951.859375 631.851562 879.636719 C 631.851562 807.933594 574.042969 750.058594 503.054688 750.058594 C 431.546875 750.058594 374.257812 807.933594 374.257812 879.636719 " fill-opacity="1" fill-rule="nonzero"/></svg>