<svg xmlns="http://www.w3.org/2000/svg" xmlns:xlink="http://www.w3.org/1999/xlink" width="2000" zoomAndPan="magnify" viewBox="0 0 1500 1499.999933" height="2000" preserveAspectRatio="xMidYMid meet" version="1.0"><defs><g/><clipPath id="f8362c47e9"><path d="M 379 559.125 L 591.75 559.125 L 591.75 733 L 379 733 Z M 379 559.125 " clip-rule="nonzero"/></clipPath><clipPath id="5af0f05d82"><path d="M 307.144531 907 L 424.996094 907 L 424.996094 940.875 L 307.144531 940.875 Z M 307.144531 907 " clip-rule="nonzero"/></clipPath><clipPath id="169beb46c6"><rect x="0" width="698" y="0" height="308"/></clipPath><clipPath id="ef08cd0a73"><rect x="0" width="110" y="0" height="130"/></clipPath></defs><rect x="-150" width="1800" fill="#ffffff" y="-149.999993" height="1799.99992" fill-opacity="1"/><rect x="-150" width="1800" fill="#ffffff" y="-149.999993" height="1799.99992" fill-opacity="1"/><path fill="#059669" d="M 366.199219 641.214844 C 346.925781 641.214844 330.34375 652.53125 322.425781 668.828125 L 409.828125 668.828125 C 401.910156 652.53125 385.324219 641.214844 366.199219 641.214844 " fill-opacity="1" fill-rule="nonzero"/><path fill="#059669" d="M 547.128906 702.78125 L 547.128906 742.621094 L 558.039062 742.621094 L 558.039062 702.78125 C 556.242188 703.386719 554.449219 703.683594 552.507812 703.683594 C 550.566406 703.683594 548.773438 703.386719 547.128906 702.78125 " fill-opacity="1" fill-rule="nonzero"/><path fill="#059669" d="M 434.03125 768.574219 C 444.9375 768.574219 453.601562 777.324219 453.601562 788.191406 C 453.601562 799.207031 444.9375 807.957031 434.03125 807.957031 C 423.273438 807.957031 414.605469 799.207031 414.605469 788.191406 C 414.605469 777.324219 423.273438 768.574219 434.03125 768.574219 Z M 396.230469 788.191406 C 396.230469 809.46875 413.109375 826.519531 434.03125 826.519531 C 455.09375 826.519531 471.976562 809.46875 471.976562 788.191406 C 471.976562 767.0625 455.09375 750.011719 434.03125 750.011719 C 413.109375 750.011719 396.230469 767.0625 396.230469 788.191406 " fill-opacity="1" fill-rule="nonzero"/><g clip-path="url(#f8362c47e9)"><path fill="#059669" d="M 426.855469 655.699219 L 458.980469 655.699219 C 456.140625 683.464844 444.9375 708.214844 431.789062 732.207031 C 452.554688 719.078125 480.644531 699.609375 499.917969 655.699219 L 544.140625 655.699219 C 570.4375 655.699219 591.949219 633.972656 591.949219 607.414062 C 591.949219 580.855469 570.4375 559.121094 544.140625 559.121094 L 426.855469 559.121094 C 400.5625 559.121094 379.046875 580.855469 379.046875 607.414062 C 379.046875 633.972656 400.5625 655.699219 426.855469 655.699219 " fill-opacity="1" fill-rule="nonzero"/></g><path fill="#059669" d="M 569.988281 681.503906 C 569.988281 671.847656 562.070312 664 552.507812 664 C 542.945312 664 535.175781 671.847656 535.175781 681.503906 C 535.175781 691.3125 542.945312 699.15625 552.507812 699.15625 C 562.070312 699.15625 569.988281 691.3125 569.988281 681.503906 " fill-opacity="1" fill-rule="nonzero"/><path fill="#059669" d="M 186.316406 747.144531 L 167.191406 747.144531 C 157.628906 747.144531 150.011719 754.992188 150.011719 764.5 L 150.011719 812.03125 C 150.011719 821.539062 157.628906 829.386719 167.191406 829.386719 L 186.316406 829.386719 C 181.386719 816.558594 178.699219 802.675781 178.699219 788.191406 C 178.699219 773.855469 181.386719 759.972656 186.316406 747.144531 " fill-opacity="1" fill-rule="nonzero"/><path fill="#059669" d="M 179.742188 699.15625 C 189.304688 699.15625 197.074219 691.3125 197.074219 681.503906 C 197.074219 671.847656 189.304688 664 179.742188 664 C 170.179688 664 162.414062 671.847656 162.414062 681.503906 C 162.414062 691.3125 170.179688 699.15625 179.742188 699.15625 " fill-opacity="1" fill-rule="nonzero"/><path fill="#059669" d="M 562.367188 747.144531 L 545.933594 747.144531 C 550.863281 759.972656 553.554688 773.855469 553.554688 788.191406 C 553.554688 802.675781 550.863281 816.558594 545.933594 829.386719 L 562.367188 829.386719 C 571.785156 829.386719 579.546875 821.539062 579.546875 812.03125 L 579.546875 764.5 C 579.546875 754.992188 571.785156 747.144531 562.367188 747.144531 " fill-opacity="1" fill-rule="nonzero"/><g clip-path="url(#5af0f05d82)"><path fill="#059669" d="M 307.480469 940.902344 L 424.765625 940.902344 L 424.765625 907.707031 L 307.480469 907.707031 L 307.480469 940.902344 " fill-opacity="1" fill-rule="nonzero"/></g><path fill="#059669" d="M 488.113281 686.636719 C 480.792969 697.347656 472.425781 706.554688 462.714844 715.15625 C 491.851562 726.324219 512.765625 754.992188 512.765625 788.191406 C 512.765625 831.347656 477.957031 866.507812 435.222656 866.507812 L 297.023438 866.507812 C 254.296875 866.507812 219.480469 831.347656 219.480469 788.191406 C 219.480469 745.1875 254.296875 710.023438 297.023438 710.023438 L 435.222656 710.023438 C 436.269531 710.023438 437.167969 710.023438 438.066406 710.023438 C 443.441406 698.554688 448.074219 686.785156 451.0625 674.414062 C 445.980469 673.65625 440.605469 673.355469 435.222656 673.355469 L 297.023438 673.355469 C 234.425781 673.355469 183.179688 724.964844 183.179688 788.191406 C 183.179688 851.417969 234.425781 903.179688 297.023438 903.179688 L 435.222656 903.179688 C 497.824219 903.179688 549.074219 851.417969 549.074219 788.191406 C 549.074219 744.28125 524.269531 705.953125 488.113281 686.636719 " fill-opacity="1" fill-rule="nonzero"/><path fill="#059669" d="M 174.363281 702.78125 L 174.363281 742.621094 L 185.121094 742.621094 L 185.121094 702.78125 C 183.476562 703.386719 181.683594 703.683594 179.742188 703.683594 C 177.800781 703.683594 176.003906 703.386719 174.363281 702.78125 " fill-opacity="1" fill-rule="nonzero"/><path fill="#059669" d="M 317.644531 788.191406 C 317.644531 799.207031 308.976562 807.957031 298.222656 807.957031 C 287.316406 807.957031 278.648438 799.207031 278.648438 788.191406 C 278.648438 777.324219 287.316406 768.574219 298.222656 768.574219 C 308.976562 768.574219 317.644531 777.324219 317.644531 788.191406 Z M 260.273438 788.191406 C 260.273438 809.46875 277.152344 826.519531 298.222656 826.519531 C 319.136719 826.519531 336.171875 809.46875 336.171875 788.191406 C 336.171875 767.0625 319.136719 750.011719 298.222656 750.011719 C 277.152344 750.011719 260.273438 767.0625 260.273438 788.191406 " fill-opacity="1" fill-rule="nonzero"/><g transform="matrix(1, 0, 0, 1, 627, 596)"><g clip-path="url(#169beb46c6)"><g fill="#059669" fill-opacity="1"><g transform="translate(1.528632, 240.999908)"><g><path d="M 72.625 -159.890625 C 92.894531 -159.890625 108.078125 -155.476562 118.171875 -146.65625 C 128.265625 -137.832031 133.3125 -125.296875 133.3125 -109.046875 C 133.3125 -101.753906 132.269531 -94.753906 130.1875 -88.046875 C 128.113281 -81.335938 124.722656 -75.359375 120.015625 -70.109375 C 115.316406 -64.859375 109.085938 -60.703125 101.328125 -57.640625 C 93.566406 -54.578125 84 -53.046875 72.625 -53.046875 L 60.484375 -53.046875 L 60.484375 0 L 17.28125 0 L 17.28125 -159.890625 Z M 71.640625 -125 L 60.484375 -125 L 60.484375 -88.265625 L 69.015625 -88.265625 C 72.734375 -88.265625 76.195312 -88.898438 79.40625 -90.171875 C 82.613281 -91.453125 85.179688 -93.53125 87.109375 -96.40625 C 89.046875 -99.289062 90.015625 -103.140625 90.015625 -107.953125 C 90.015625 -112.972656 88.519531 -117.066406 85.53125 -120.234375 C 82.539062 -123.410156 77.910156 -125 71.640625 -125 Z M 71.640625 -125 "/></g></g></g><g fill="#059669" fill-opacity="1"><g transform="translate(143.040125, 240.999908)"><g><path d="M 153.21875 -159.890625 L 153.21875 -63.65625 C 153.21875 -50.238281 150.664062 -38.585938 145.5625 -28.703125 C 140.457031 -18.828125 132.800781 -11.207031 122.59375 -5.84375 C 112.394531 -0.488281 99.601562 2.1875 84.21875 2.1875 C 62.195312 2.1875 45.390625 -3.460938 33.796875 -14.765625 C 22.203125 -26.066406 16.40625 -42.035156 16.40625 -62.671875 L 16.40625 -159.890625 L 59.828125 -159.890625 L 59.828125 -66.0625 C 59.828125 -54.757812 61.941406 -46.554688 66.171875 -41.453125 C 70.398438 -36.347656 76.632812 -33.796875 84.875 -33.796875 C 90.78125 -33.796875 95.59375 -34.90625 99.3125 -37.125 C 103.03125 -39.351562 105.742188 -42.875 107.453125 -47.6875 C 109.171875 -52.5 110.03125 -58.695312 110.03125 -66.28125 L 110.03125 -159.890625 Z M 153.21875 -159.890625 "/></g></g></g><g fill="#059669" fill-opacity="1"><g transform="translate(312.54771, 240.999908)"><g><path d="M 17.28125 0 L 17.28125 -159.890625 L 60.484375 -159.890625 L 60.484375 -34.890625 L 122.046875 -34.890625 L 122.046875 0 Z M 17.28125 0 "/></g></g></g><g fill="#059669" fill-opacity="1"><g transform="translate(442.904512, 240.999908)"><g><path d="M 121.828125 -48.5625 C 121.828125 -39.882812 119.640625 -31.660156 115.265625 -23.890625 C 110.898438 -16.128906 104.101562 -9.84375 94.875 -5.03125 C 85.65625 -0.21875 73.753906 2.1875 59.171875 2.1875 C 51.878906 2.1875 45.476562 1.859375 39.96875 1.203125 C 34.46875 0.546875 29.347656 -0.523438 24.609375 -2.015625 C 19.867188 -3.515625 14.945312 -5.46875 9.84375 -7.875 L 9.84375 -46.375 C 18.519531 -42 27.269531 -38.660156 36.09375 -36.359375 C 44.914062 -34.066406 52.898438 -32.921875 60.046875 -32.921875 C 64.347656 -32.921875 67.863281 -33.429688 70.59375 -34.453125 C 73.332031 -35.472656 75.359375 -36.875 76.671875 -38.65625 C 77.984375 -40.445312 78.640625 -42.507812 78.640625 -44.84375 C 78.640625 -47.613281 77.671875 -49.960938 75.734375 -51.890625 C 73.804688 -53.828125 70.726562 -55.851562 66.5 -57.96875 C 62.269531 -60.082031 56.691406 -62.707031 49.765625 -65.84375 C 43.859375 -68.613281 38.515625 -71.457031 33.734375 -74.375 C 28.960938 -77.289062 24.878906 -80.625 21.484375 -84.375 C 18.097656 -88.132812 15.492188 -92.53125 13.671875 -97.5625 C 11.847656 -102.59375 10.9375 -108.53125 10.9375 -115.375 C 10.9375 -125.65625 13.46875 -134.273438 18.53125 -141.234375 C 23.601562 -148.203125 30.675781 -153.4375 39.75 -156.9375 C 48.832031 -160.4375 59.316406 -162.1875 71.203125 -162.1875 C 81.628906 -162.1875 91.015625 -161.019531 99.359375 -158.6875 C 107.710938 -156.351562 115.203125 -153.691406 121.828125 -150.703125 L 108.609375 -117.34375 C 101.753906 -120.476562 95.007812 -122.972656 88.375 -124.828125 C 81.738281 -126.691406 75.578125 -127.625 69.890625 -127.625 C 66.171875 -127.625 63.125 -127.164062 60.75 -126.25 C 58.382812 -125.34375 56.632812 -124.125 55.5 -122.59375 C 54.375 -121.0625 53.8125 -119.3125 53.8125 -117.34375 C 53.8125 -114.863281 54.773438 -112.640625 56.703125 -110.671875 C 58.640625 -108.710938 61.882812 -106.582031 66.4375 -104.28125 C 71 -101.988281 77.21875 -99.019531 85.09375 -95.375 C 92.894531 -91.875 99.523438 -88.097656 104.984375 -84.046875 C 110.453125 -80.003906 114.625 -75.15625 117.5 -69.5 C 120.382812 -63.851562 121.828125 -56.875 121.828125 -48.5625 Z M 121.828125 -48.5625 "/></g></g></g><g fill="#059669" fill-opacity="1"><g transform="translate(572.167714, 240.999908)"><g><path d="M 112.203125 0 L 17.28125 0 L 17.28125 -159.890625 L 112.203125 -159.890625 L 112.203125 -125.21875 L 60.484375 -125.21875 L 60.484375 -100.078125 L 108.390625 -100.078125 L 108.390625 -65.40625 L 60.484375 -65.40625 L 60.484375 -35.21875 L 112.203125 -35.21875 Z M 112.203125 0 "/></g></g></g></g></g><g transform="matrix(1, 0, 0, 1, 632, 817)"><g clip-path="url(#ef08cd0a73)"><g fill="#059669" fill-opacity="1"><g transform="translate(3.455584, 99.399882)"><g><path d="M 49.453125 0 L 46.078125 -12.84375 L 23.8125 -12.84375 L 20.34375 0 L 0 0 L 22.359375 -68.8125 L 47.0625 -68.8125 L 69.703125 0 Z M 42.234375 -28.03125 L 39.28125 -39.28125 C 38.96875 -40.5 38.515625 -42.238281 37.921875 -44.5 C 37.328125 -46.769531 36.738281 -49.113281 36.15625 -51.53125 C 35.582031 -53.957031 35.140625 -55.953125 34.828125 -57.515625 C 34.546875 -55.953125 34.144531 -54.019531 33.625 -51.71875 C 33.113281 -49.425781 32.582031 -47.15625 32.03125 -44.90625 C 31.488281 -42.65625 31.015625 -40.78125 30.609375 -39.28125 L 27.65625 -28.03125 Z M 42.234375 -28.03125 "/></g></g><g transform="translate(73.158703, 99.399882)"><g><path d="M 7.40625 0 L 7.40625 -68.53125 L 26.015625 -68.53125 L 26.015625 0 Z M 7.40625 0 "/></g></g></g></g></g></svg>