<svg xmlns="http://www.w3.org/2000/svg" xmlns:xlink="http://www.w3.org/1999/xlink" width="2000" zoomAndPan="magnify" viewBox="0 0 1500 1499.999933" height="2000" preserveAspectRatio="xMidYMid meet" version="1.0"><defs><g/><clipPath id="4fdc90dcd5"><path d="M 758 394.542969 L 970.765625 394.542969 L 970.765625 568 L 758 568 Z M 758 394.542969 " clip-rule="nonzero"/></clipPath><clipPath id="ada787611c"><path d="M 529.015625 582 L 566 582 L 566 665 L 529.015625 665 Z M 529.015625 582 " clip-rule="nonzero"/></clipPath><clipPath id="12798c3708"><path d="M 686.160156 743 L 804 743 L 804 776.292969 L 686.160156 776.292969 Z M 686.160156 743 " clip-rule="nonzero"/></clipPath><clipPath id="7f3b79d74e"><rect x="0" width="696" y="0" height="307"/></clipPath><clipPath id="fe4e38b432"><rect x="0" width="107" y="0" height="130"/></clipPath></defs><rect x="-150" width="1800" fill="#ffffff" y="-149.999993" height="1799.99992" fill-opacity="1"/><rect x="-150" width="1800" fill="#ffffff" y="-149.999993" height="1799.99992" fill-opacity="1"/><path fill="#059669" d="M 745.21875 476.628906 C 725.945312 476.628906 709.359375 487.949219 701.441406 504.246094 L 788.84375 504.246094 C 780.925781 487.949219 764.339844 476.628906 745.21875 476.628906 " fill-opacity="1" fill-rule="nonzero"/><path fill="#059669" d="M 926.144531 538.195312 L 926.144531 578.035156 L 937.054688 578.035156 L 937.054688 538.195312 C 935.257812 538.800781 933.46875 539.101562 931.527344 539.101562 C 929.582031 539.101562 927.789062 538.800781 926.144531 538.195312 " fill-opacity="1" fill-rule="nonzero"/><path fill="#059669" d="M 813.046875 603.992188 C 823.953125 603.992188 832.621094 612.742188 832.621094 623.605469 C 832.621094 634.625 823.953125 643.375 813.046875 643.375 C 802.289062 643.375 793.625 634.625 793.625 623.605469 C 793.625 612.742188 802.289062 603.992188 813.046875 603.992188 Z M 775.246094 623.605469 C 775.246094 644.886719 792.128906 661.933594 813.046875 661.933594 C 834.113281 661.933594 850.996094 644.886719 850.996094 623.605469 C 850.996094 602.480469 834.113281 585.429688 813.046875 585.429688 C 792.128906 585.429688 775.246094 602.480469 775.246094 623.605469 " fill-opacity="1" fill-rule="nonzero"/><g clip-path="url(#4fdc90dcd5)"><path fill="#059669" d="M 805.871094 491.117188 L 837.996094 491.117188 C 835.160156 518.878906 823.953125 543.632812 810.804688 567.625 C 831.570312 554.496094 859.660156 535.027344 878.933594 491.117188 L 923.15625 491.117188 C 949.453125 491.117188 970.96875 469.386719 970.96875 442.828125 C 970.96875 416.269531 949.453125 394.539062 923.15625 394.539062 L 805.871094 394.539062 C 779.578125 394.539062 758.066406 416.269531 758.066406 442.828125 C 758.066406 469.386719 779.578125 491.117188 805.871094 491.117188 " fill-opacity="1" fill-rule="nonzero"/></g><path fill="#059669" d="M 949.003906 516.917969 C 949.003906 507.261719 941.085938 499.414062 931.527344 499.414062 C 921.960938 499.414062 914.195312 507.261719 914.195312 516.917969 C 914.195312 526.730469 921.960938 534.574219 931.527344 534.574219 C 941.085938 534.574219 949.003906 526.730469 949.003906 516.917969 " fill-opacity="1" fill-rule="nonzero"/><g clip-path="url(#ada787611c)"><path fill="#059669" d="M 565.332031 582.5625 L 546.210938 582.5625 C 536.644531 582.5625 529.027344 590.40625 529.027344 599.917969 L 529.027344 647.449219 C 529.027344 656.957031 536.644531 664.804688 546.210938 664.804688 L 565.332031 664.804688 C 560.402344 651.976562 557.714844 638.09375 557.714844 623.605469 C 557.714844 609.269531 560.402344 595.386719 565.332031 582.5625 " fill-opacity="1" fill-rule="nonzero"/></g><path fill="#059669" d="M 558.757812 534.574219 C 568.324219 534.574219 576.089844 526.730469 576.089844 516.917969 C 576.089844 507.261719 568.324219 499.414062 558.757812 499.414062 C 549.199219 499.414062 541.429688 507.261719 541.429688 516.917969 C 541.429688 526.730469 549.199219 534.574219 558.757812 534.574219 " fill-opacity="1" fill-rule="nonzero"/><path fill="#059669" d="M 941.386719 582.5625 L 924.953125 582.5625 C 929.878906 595.386719 932.570312 609.269531 932.570312 623.605469 C 932.570312 638.09375 929.878906 651.976562 924.953125 664.804688 L 941.386719 664.804688 C 950.800781 664.804688 958.566406 656.957031 958.566406 647.449219 L 958.566406 599.917969 C 958.566406 590.40625 950.800781 582.5625 941.386719 582.5625 " fill-opacity="1" fill-rule="nonzero"/><g clip-path="url(#12798c3708)"><path fill="#059669" d="M 686.5 776.316406 L 803.78125 776.316406 L 803.78125 743.121094 L 686.5 743.121094 L 686.5 776.316406 " fill-opacity="1" fill-rule="nonzero"/></g><path fill="#059669" d="M 867.128906 522.050781 C 859.8125 532.761719 851.445312 541.96875 841.730469 550.570312 C 870.867188 561.738281 891.78125 590.40625 891.78125 623.605469 C 891.78125 666.765625 856.972656 701.925781 814.238281 701.925781 L 676.042969 701.925781 C 633.3125 701.925781 598.5 666.765625 598.5 623.605469 C 598.5 580.601562 633.3125 545.4375 676.042969 545.4375 L 814.238281 545.4375 C 815.285156 545.4375 816.183594 545.4375 817.082031 545.4375 C 822.457031 533.972656 827.089844 522.203125 830.078125 509.828125 C 824.996094 509.074219 819.621094 508.769531 814.238281 508.769531 L 676.042969 508.769531 C 613.441406 508.769531 562.195312 560.378906 562.195312 623.605469 C 562.195312 686.832031 613.441406 738.59375 676.042969 738.59375 L 814.238281 738.59375 C 876.839844 738.59375 928.089844 686.832031 928.089844 623.605469 C 928.089844 579.695312 903.289062 541.367188 867.128906 522.050781 " fill-opacity="1" fill-rule="nonzero"/><path fill="#059669" d="M 553.378906 538.195312 L 553.378906 578.035156 L 564.136719 578.035156 L 564.136719 538.195312 C 562.496094 538.800781 560.699219 539.101562 558.757812 539.101562 C 556.816406 539.101562 555.023438 538.800781 553.378906 538.195312 " fill-opacity="1" fill-rule="nonzero"/><path fill="#059669" d="M 696.660156 623.605469 C 696.660156 634.625 687.996094 643.375 677.238281 643.375 C 666.332031 643.375 657.664062 634.625 657.664062 623.605469 C 657.664062 612.742188 666.332031 603.992188 677.238281 603.992188 C 687.996094 603.992188 696.660156 612.742188 696.660156 623.605469 Z M 639.289062 623.605469 C 639.289062 644.886719 656.167969 661.933594 677.238281 661.933594 C 698.152344 661.933594 715.1875 644.886719 715.1875 623.605469 C 715.1875 602.480469 698.152344 585.429688 677.238281 585.429688 C 656.167969 585.429688 639.289062 602.480469 639.289062 623.605469 " fill-opacity="1" fill-rule="nonzero"/><g transform="matrix(1, 0, 0, 1, 402, 735)"><g clip-path="url(#7f3b79d74e)"><g fill="#059669" fill-opacity="1"><g transform="translate(1.218749, 240.690014)"><g><path d="M 72.625 -159.890625 C 92.894531 -159.890625 108.078125 -155.476562 118.171875 -146.65625 C 128.265625 -137.832031 133.3125 -125.296875 133.3125 -109.046875 C 133.3125 -101.753906 132.269531 -94.753906 130.1875 -88.046875 C 128.113281 -81.335938 124.722656 -75.359375 120.015625 -70.109375 C 115.316406 -64.859375 109.085938 -60.703125 101.328125 -57.640625 C 93.566406 -54.578125 84 -53.046875 72.625 -53.046875 L 60.484375 -53.046875 L 60.484375 0 L 17.28125 0 L 17.28125 -159.890625 Z M 71.640625 -125 L 60.484375 -125 L 60.484375 -88.265625 L 69.015625 -88.265625 C 72.734375 -88.265625 76.195312 -88.898438 79.40625 -90.171875 C 82.613281 -91.453125 85.179688 -93.53125 87.109375 -96.40625 C 89.046875 -99.289062 90.015625 -103.140625 90.015625 -107.953125 C 90.015625 -112.972656 88.519531 -117.066406 85.53125 -120.234375 C 82.539062 -123.410156 77.910156 -125 71.640625 -125 Z M 71.640625 -125 "/></g></g></g><g fill="#059669" fill-opacity="1"><g transform="translate(142.730242, 240.690014)"><g><path d="M 153.21875 -159.890625 L 153.21875 -63.65625 C 153.21875 -50.238281 150.664062 -38.585938 145.5625 -28.703125 C 140.457031 -18.828125 132.800781 -11.207031 122.59375 -5.84375 C 112.394531 -0.488281 99.601562 2.1875 84.21875 2.1875 C 62.195312 2.1875 45.390625 -3.460938 33.796875 -14.765625 C 22.203125 -26.066406 16.40625 -42.035156 16.40625 -62.671875 L 16.40625 -159.890625 L 59.828125 -159.890625 L 59.828125 -66.0625 C 59.828125 -54.757812 61.941406 -46.554688 66.171875 -41.453125 C 70.398438 -36.347656 76.632812 -33.796875 84.875 -33.796875 C 90.78125 -33.796875 95.59375 -34.90625 99.3125 -37.125 C 103.03125 -39.351562 105.742188 -42.875 107.453125 -47.6875 C 109.171875 -52.5 110.03125 -58.695312 110.03125 -66.28125 L 110.03125 -159.890625 Z M 153.21875 -159.890625 "/></g></g></g><g fill="#059669" fill-opacity="1"><g transform="translate(312.237827, 240.690014)"><g><path d="M 17.28125 0 L 17.28125 -159.890625 L 60.484375 -159.890625 L 60.484375 -34.890625 L 122.046875 -34.890625 L 122.046875 0 Z M 17.28125 0 "/></g></g></g><g fill="#059669" fill-opacity="1"><g transform="translate(442.594629, 240.690014)"><g><path d="M 121.828125 -48.5625 C 121.828125 -39.882812 119.640625 -31.660156 115.265625 -23.890625 C 110.898438 -16.128906 104.101562 -9.84375 94.875 -5.03125 C 85.65625 -0.21875 73.753906 2.1875 59.171875 2.1875 C 51.878906 2.1875 45.476562 1.859375 39.96875 1.203125 C 34.46875 0.546875 29.347656 -0.523438 24.609375 -2.015625 C 19.867188 -3.515625 14.945312 -5.46875 9.84375 -7.875 L 9.84375 -46.375 C 18.519531 -42 27.269531 -38.660156 36.09375 -36.359375 C 44.914062 -34.066406 52.898438 -32.921875 60.046875 -32.921875 C 64.347656 -32.921875 67.863281 -33.429688 70.59375 -34.453125 C 73.332031 -35.472656 75.359375 -36.875 76.671875 -38.65625 C 77.984375 -40.445312 78.640625 -42.507812 78.640625 -44.84375 C 78.640625 -47.613281 77.671875 -49.960938 75.734375 -51.890625 C 73.804688 -53.828125 70.726562 -55.851562 66.5 -57.96875 C 62.269531 -60.082031 56.691406 -62.707031 49.765625 -65.84375 C 43.859375 -68.613281 38.515625 -71.457031 33.734375 -74.375 C 28.960938 -77.289062 24.878906 -80.625 21.484375 -84.375 C 18.097656 -88.132812 15.492188 -92.53125 13.671875 -97.5625 C 11.847656 -102.59375 10.9375 -108.53125 10.9375 -115.375 C 10.9375 -125.65625 13.46875 -134.273438 18.53125 -141.234375 C 23.601562 -148.203125 30.675781 -153.4375 39.75 -156.9375 C 48.832031 -160.4375 59.316406 -162.1875 71.203125 -162.1875 C 81.628906 -162.1875 91.015625 -161.019531 99.359375 -158.6875 C 107.710938 -156.351562 115.203125 -153.691406 121.828125 -150.703125 L 108.609375 -117.34375 C 101.753906 -120.476562 95.007812 -122.972656 88.375 -124.828125 C 81.738281 -126.691406 75.578125 -127.625 69.890625 -127.625 C 66.171875 -127.625 63.125 -127.164062 60.75 -126.25 C 58.382812 -125.34375 56.632812 -124.125 55.5 -122.59375 C 54.375 -121.0625 53.8125 -119.3125 53.8125 -117.34375 C 53.8125 -114.863281 54.773438 -112.640625 56.703125 -110.671875 C 58.640625 -108.710938 61.882812 -106.582031 66.4375 -104.28125 C 71 -101.988281 77.21875 -99.019531 85.09375 -95.375 C 92.894531 -91.875 99.523438 -88.097656 104.984375 -84.046875 C 110.453125 -80.003906 114.625 -75.15625 117.5 -69.5 C 120.382812 -63.851562 121.828125 -56.875 121.828125 -48.5625 Z M 121.828125 -48.5625 "/></g></g></g><g fill="#059669" fill-opacity="1"><g transform="translate(571.857831, 240.690014)"><g><path d="M 112.203125 0 L 17.28125 0 L 17.28125 -159.890625 L 112.203125 -159.890625 L 112.203125 -125.21875 L 60.484375 -125.21875 L 60.484375 -100.078125 L 108.390625 -100.078125 L 108.390625 -65.40625 L 60.484375 -65.40625 L 60.484375 -35.21875 L 112.203125 -35.21875 Z M 112.203125 0 "/></g></g></g></g></g><g transform="matrix(1, 0, 0, 1, 696, 984)"><g clip-path="url(#fe4e38b432)"><g fill="#059669" fill-opacity="1"><g transform="translate(2.393527, 99.283715)"><g><path d="M 49.453125 0 L 46.078125 -12.84375 L 23.8125 -12.84375 L 20.34375 0 L 0 0 L 22.359375 -68.8125 L 47.0625 -68.8125 L 69.703125 0 Z M 42.234375 -28.03125 L 39.28125 -39.28125 C 38.96875 -40.5 38.515625 -42.238281 37.921875 -44.5 C 37.328125 -46.769531 36.738281 -49.113281 36.15625 -51.53125 C 35.582031 -53.957031 35.140625 -55.953125 34.828125 -57.515625 C 34.546875 -55.953125 34.144531 -54.019531 33.625 -51.71875 C 33.113281 -49.425781 32.582031 -47.15625 32.03125 -44.90625 C 31.488281 -42.65625 31.015625 -40.78125 30.609375 -39.28125 L 27.65625 -28.03125 Z M 42.234375 -28.03125 "/></g></g><g transform="translate(72.096646, 99.283715)"><g><path d="M 7.40625 0 L 7.40625 -68.53125 L 26.015625 -68.53125 L 26.015625 0 Z M 7.40625 0 "/></g></g></g></g></g></svg>