<?xml version="1.0" encoding="UTF-8"?>
<svg version="1.1" xmlns="http://www.w3.org/2000/svg" width="2560" height="935">
<path d="M0 0 C1.28342285 0.00290039 1.28342285 0.00290039 2.59277344 0.00585938 C25.91349183 0.1088206 50.22918902 5.99395983 72 14 C72.68223633 14.24717773 73.36447266 14.49435547 74.06738281 14.74902344 C89.9786146 20.58661175 105.23121061 28.14796934 119.625 37.0625 C124.22121871 39.91044978 124.22121871 39.91044978 128.8984375 42.62109375 C129.59195312 43.07613281 130.28546875 43.53117187 131 44 C131 44.66 131 45.32 131 46 C131.71800781 46.24492187 132.43601562 46.48984375 133.17578125 46.7421875 C136.34699544 48.15454015 138.54197845 49.88197287 141.1875 52.125 C145.77818852 55.98591875 150.44626876 59.71213536 155.19921875 63.37109375 C155.79347656 63.90863281 156.38773438 64.44617188 157 65 C157 65.66 157 66.32 157 67 C157.53882813 67.21269531 158.07765625 67.42539062 158.6328125 67.64453125 C161.87114918 69.49882635 164.29086537 72.03828705 166.875 74.6875 C167.40875244 75.22842285 167.94250488 75.7693457 168.49243164 76.32666016 C172.17042161 80.08053713 175.67719749 83.92722326 179 88 C179.48339844 88.55558594 179.96679688 89.11117187 180.46484375 89.68359375 C184 93.76713989 184 93.76713989 184 96 C184.99 96.33 185.98 96.66 187 97 C188.66819835 99.11766112 190.19070625 101.20543914 191.6875 103.4375 C192.10322266 104.03626953 192.51894531 104.63503906 192.94726562 105.25195312 C196 109.72829433 196 109.72829433 196 112 C196.66 112 197.32 112 198 112 C199.296875 113.8359375 199.296875 113.8359375 200.75 116.375 C201.21921875 117.18710937 201.6884375 117.99921875 202.171875 118.8359375 C202.77515625 119.88007813 203.3784375 120.92421875 204 122 C204.44472656 122.72405029 204.88945313 123.44810059 205.34765625 124.1940918 C209.10512341 130.32364215 212.41019527 136.57241847 215.5 143.0625 C215.97703369 144.0618457 216.45406738 145.06119141 216.94555664 146.09082031 C220.36872736 153.38378903 223.29177202 160.72510361 225.8046875 168.375 C226.79773303 171.38658907 227.89362936 174.30481414 229.0625 177.25 C238.24414211 202.85192324 240.3396519 230.39727092 240.5625 257.375 C240.57721344 258.27784729 240.59192688 259.18069458 240.60708618 260.11090088 C240.83757776 276.92816397 238.61428259 292.32845954 228 306 C227.03126953 307.27423828 227.03126953 307.27423828 226.04296875 308.57421875 C216.66511108 319.93551941 202.73921199 328.4165706 188 330 C184.3946852 330.15950505 180.79597708 330.18504023 177.1875 330.1875 C176.25357422 330.19974609 175.31964844 330.21199219 174.35742188 330.22460938 C158.23441234 330.25817567 144.42934073 324.50940505 132.4375 313.6875 C129.35830734 310.29249271 126.64641521 306.73858656 124 303 C123.55398438 302.39414062 123.10796875 301.78828125 122.6484375 301.1640625 C116.60868453 292.38233579 114.00925475 281.20563322 113.71875 270.66015625 C113.68136719 269.43103516 113.64398437 268.20191406 113.60546875 266.93554688 C113.55326172 265.01838867 113.55326172 265.01838867 113.5 263.0625 C113.04759522 242.92319503 113.04759522 242.92319503 109.6875 223.125 C109.48705078 222.25359375 109.28660156 221.3821875 109.08007812 220.484375 C107.88243043 215.54546873 106.33246237 211.19218516 103.91479492 206.7175293 C103 205 103 205 101.625 201.6875 C95.25534164 186.72385815 85.17992537 171.86115871 72.57421875 161.515625 C72.05472656 161.01546875 71.53523438 160.5153125 71 160 C71 159.34 71 158.68 71 158 C70.42121094 157.72929687 69.84242188 157.45859375 69.24609375 157.1796875 C66.99122607 155.99539178 65.08408496 154.67021147 63.0625 153.125 C62.41410156 152.63257813 61.76570313 152.14015625 61.09765625 151.6328125 C59.60651614 150.47211126 58.14554906 149.2721883 56.70703125 148.046875 C53.53220737 145.64628667 50.18482159 143.86810894 46.625 142.125 C45.58303467 141.60945557 45.58303467 141.60945557 44.52001953 141.08349609 C12.31498876 125.39946416 -23.25372009 121.82769093 -57.48706055 133.44677734 C-63.91822292 135.78291688 -69.84173095 138.86471438 -75.765625 142.265625 C-78.80675052 143.89637347 -81.69940778 145.01982413 -85 146 C-85 146.66 -85 147.32 -85 148 C-86.8359375 149.41015625 -86.8359375 149.41015625 -89.375 151.0625 C-97.02682065 156.27570925 -103.83985598 162.2694362 -109.69921875 169.44921875 C-111 171 -111 171 -113.625 173.5625 C-116.14914297 176.00054516 -116.14914297 176.00054516 -118.1875 179.3125 C-118.785625 180.199375 -119.38375 181.08625 -120 182 C-120.66 182 -121.32 182 -122 182 C-122.061875 182.66 -122.12375 183.32 -122.1875 184 C-123.13305219 187.49126961 -124.71949887 189.90005986 -126.67578125 192.91015625 C-128.73054366 196.15292288 -130.38617666 199.52076869 -132 203 C-132.39058594 203.80308594 -132.78117188 204.60617187 -133.18359375 205.43359375 C-145.18699673 231.79620778 -146.76718459 266.63862725 -137 294 C-136.7323584 294.76135254 -136.4647168 295.52270508 -136.18896484 296.30712891 C-133.07985553 304.90954443 -129.25579687 312.83551574 -124.3828125 320.58203125 C-123.12525642 322.78097817 -122.44980022 324.52609878 -122 327 C-121.34 327 -120.68 327 -120 327 C-118.62340232 328.72147778 -117.32227237 330.50377655 -116.0625 332.3125 C-113.37763585 336.20872721 -113.37763585 336.20872721 -110.24609375 339.73046875 C-109 341 -109 341 -109 343 C-108.01 343.33 -107.02 343.66 -106 344 C-104.30696046 345.63986971 -102.64337716 347.31036481 -101 349 C-70.01674811 375.93781961 -37.12578374 383.11864123 3.02197266 383.17358398 C5.02719768 383.17990019 7.03242132 383.18666715 9.03764343 383.19384766 C13.33451674 383.20844006 17.63138492 383.22019555 21.92827225 383.22979546 C28.72860453 383.24533254 35.5288915 383.26927912 42.32919312 383.29469299 C61.65921155 383.36567903 80.98925496 383.42571566 100.31933594 383.47680664 C111.0113899 383.50514046 121.70339773 383.54053024 132.39540327 383.58346039 C139.14984742 383.61015982 145.90423953 383.62810892 152.65872598 383.63949764 C156.86456676 383.64864755 161.07034428 383.66601951 165.27614784 383.68567657 C167.21991668 383.69312485 169.16370176 383.69723149 171.10748482 383.69767189 C191.70209109 383.7061033 207.87999954 387.02550786 223.11328125 402.08984375 C235.43090494 415.28895464 240.7974585 430.77486741 240.5234375 448.67700195 C239.85424148 464.63082089 233.95188653 479.27655199 223 491 C219.78547833 493.83692717 216.44455209 496.4497621 213 499 C212.01386719 499.79083984 212.01386719 499.79083984 211.0078125 500.59765625 C208.76885305 502.1614431 206.61234985 503.09206408 204.0625 504.0625 C203.22847656 504.38347656 202.39445312 504.70445312 201.53515625 505.03515625 C200.69855469 505.35355469 199.86195313 505.67195313 199 506 C198.21496094 506.34933594 197.42992187 506.69867187 196.62109375 507.05859375 C190.56854666 509.2324594 184.26145697 509.14415316 177.91383362 509.12698364 C177.02076018 509.12854363 176.12768674 509.13010362 175.20755047 509.13171089 C172.22632201 509.13568727 169.24514482 509.13254418 166.26391602 509.12939453 C164.12138336 509.13075015 161.97885095 509.13253099 159.83631897 509.13470459 C154.02178922 509.13926228 148.20727722 509.13749552 142.39274716 509.1343255 C136.29568004 509.13179039 130.19861442 509.13414293 124.10154724 509.13571167 C113.85325855 509.13753124 103.60497705 509.13513391 93.35668945 509.13037109 C81.53884124 509.12494195 69.72101032 509.12668217 57.90316254 509.1321975 C47.7380981 509.1367503 37.57303884 509.1373682 27.40797371 509.13475883 C21.34558863 509.13320628 15.28321165 509.13297387 9.2208271 509.13629532 C3.51053888 509.13920511 -2.19972733 509.13714174 -7.9100132 509.13140106 C-9.99478494 509.13008946 -12.07955856 509.13044004 -14.16432953 509.13266373 C-31.24166025 509.14918522 -47.70551565 508.63803673 -64.5 505.25 C-65.1742099 505.11616913 -65.8484198 504.98233826 -66.5430603 504.8444519 C-76.60956586 502.84049298 -86.36555235 500.56986034 -96 497 C-96.70302246 496.74637695 -97.40604492 496.49275391 -98.13037109 496.23144531 C-107.9008369 492.69200369 -117.2311296 488.59082014 -126.44921875 483.796875 C-128.77828785 482.61824817 -131.14557344 481.51174348 -133.546875 480.48828125 C-143.76923752 476.08248926 -152.91355609 469.86378111 -161.84375 463.296875 C-164.01270766 461.71847512 -166.14831733 460.25850155 -168.40625 458.828125 C-169.2621875 458.22484375 -170.118125 457.6215625 -171 457 C-171 456.34 -171 455.68 -171 455 C-172.65 454.34 -174.3 453.68 -176 453 C-176 452.34 -176 451.68 -176 451 C-177.2065625 450.5978125 -177.2065625 450.5978125 -178.4375 450.1875 C-179.283125 449.795625 -180.12875 449.40375 -181 449 C-181.495 447.515 -181.495 447.515 -182 446 C-183.32338632 445.31379969 -184.65949948 444.65213539 -186 444 C-190.36113764 440.70491823 -193.81304235 437.05056257 -197.35546875 432.8984375 C-198.63589527 431.42032042 -199.99219087 430.00780913 -201.375 428.625 C-240.7521702 389.2478298 -263.10220741 334.7447439 -269 280 C-269.13277344 278.85789062 -269.26554688 277.71578125 -269.40234375 276.5390625 C-269.71393362 273.35487015 -269.88220837 270.19769628 -270 267 C-270.04882324 265.81784912 -270.04882324 265.81784912 -270.09863281 264.61181641 C-271.20061813 233.99554754 -267.67928769 202.25457417 -256.90991211 173.47265625 C-256.06783341 171.18433506 -255.29936166 168.88646975 -254.5625 166.5625 C-250.79652903 155.22452357 -245.52764398 144.56210597 -240 134 C-239.65453125 133.3395166 -239.3090625 132.6790332 -238.953125 131.99853516 C-229.29531248 113.74148565 -216.99029845 97.48123584 -203.04296875 82.2890625 C-201.63592393 80.71252663 -200.28242235 79.08709716 -198.9765625 77.42578125 C-197.16677674 75.20468054 -195.36526611 73.41204882 -193.1875 71.5625 C-192.4965625 70.97082031 -191.805625 70.37914062 -191.09375 69.76953125 C-190.4028125 69.18558594 -189.711875 68.60164063 -189 68 C-187.72837062 66.91760118 -186.45748366 65.83432927 -185.1875 64.75 C-184.37345703 64.06164062 -184.37345703 64.06164062 -183.54296875 63.359375 C-181.96061359 61.96530008 -180.4889097 60.49280737 -179 59 C-173.46478873 54 -173.46478873 54 -171 54 C-171 53.34 -171 52.68 -171 52 C-169.1640625 50.51953125 -169.1640625 50.51953125 -166.625 48.8125 C-162.54401357 46.05255176 -162.54401357 46.05255176 -158.53125 43.1953125 C-153.21657746 39.31284068 -147.81933794 36.25177063 -141.859375 33.45703125 C-138.94883939 32.0502643 -138.94883939 32.0502643 -136.2578125 30.12890625 C-132.05491943 27.38241138 -127.65969386 25.26620059 -123.125 23.125 C-122.19461914 22.68518799 -121.26423828 22.24537598 -120.30566406 21.79223633 C-102.21504406 13.35087854 -83.62939697 7.6137802 -64 4 C-62.08960938 3.5978125 -62.08960938 3.5978125 -60.140625 3.1875 C-40.34129788 -0.95162062 -20.13094606 -0.22192514 0 0 Z " fill="#2A79FD" transform="translate(444,213)"/>
<path d="M0 0 C0 0.66 0 1.32 0 2 C0.804375 2.0928125 0.804375 2.0928125 1.625 2.1875 C7.5632486 4.2190061 11.11471058 9.33765269 15 14 C15.33 6.08 15.66 -1.84 16 -10 C37.78 -10 59.56 -10 82 -10 C82 98.24 82 206.48 82 318 C59.56 318 37.12 318 14 318 C14 276.75 14 235.5 14 193 C12.35 194.65 10.7 196.3 9 198 C7.78636407 199.12121476 6.55926055 200.22823857 5.3125 201.3125 C4.73113281 201.82425781 4.14976562 202.33601562 3.55078125 202.86328125 C2 204 2 204 0 204 C0 204.66 0 205.32 0 206 C-5.81484241 210.24884101 -12.38217105 213.24449282 -19 216 C-19.69867187 216.33902344 -20.39734375 216.67804688 -21.1171875 217.02734375 C-44.9116458 227.93656771 -77.8113087 224.70678261 -101.70019531 216.04956055 C-110.23317365 212.73260968 -119.77858104 208.72065888 -127 203 C-127.33 202.01 -127.66 201.02 -128 200 C-128.7321875 199.71640625 -129.464375 199.4328125 -130.21875 199.140625 C-133.82041816 197.66353637 -135.79312543 195.53291037 -138.5 192.75 C-138.98339844 192.25419434 -139.46679688 191.75838867 -139.96484375 191.24755859 C-144.61830577 186.43803535 -148.59522391 181.77331599 -152 176 C-152.92425781 174.46859375 -152.92425781 174.46859375 -153.8671875 172.90625 C-158.43063847 165.16436431 -162.28204172 157.60990812 -165 149 C-165.34272949 148.01580078 -165.34272949 148.01580078 -165.69238281 147.01171875 C-170.45287991 132.91703993 -170.48383265 118.71851567 -170.5 104 C-170.50440094 103.0212793 -170.50880188 102.04255859 -170.51333618 101.03417969 C-170.53471223 89.61961105 -170.06513035 79.05697612 -167 68 C-166.80680176 67.24251465 -166.61360352 66.4850293 -166.41455078 65.70458984 C-162.08926744 49.28475835 -154.99404201 34.91059451 -144 22 C-143.23816406 21.07574219 -142.47632813 20.15148437 -141.69140625 19.19921875 C-137.80245615 14.6109712 -137.80245615 14.6109712 -136 13 C-135.01 13 -134.02 13 -133 13 C-132.76539063 12.41089844 -132.53078125 11.82179688 -132.2890625 11.21484375 C-130.69661949 8.47873712 -128.99785969 7.32054682 -126.375 5.5625 C-125.47523438 4.95921875 -124.57546875 4.3559375 -123.6484375 3.734375 C-122.77445313 3.16203125 -121.90046875 2.5896875 -121 2 C-120.31164062 1.53078125 -119.62328125 1.0615625 -118.9140625 0.578125 C-110.97419134 -4.67191226 -102.14273699 -7.36714818 -93.125 -10.1875 C-92.3112793 -10.44974365 -91.49755859 -10.7119873 -90.65917969 -10.98217773 C-63.59893647 -19.20053341 -23.28960951 -17.2178305 0 0 Z M-84 59 C-84.33 59.99 -84.66 60.98 -85 62 C-86.32438715 62.68426669 -87.65887103 63.349158 -89 64 C-99.08821973 74.28998413 -102.26057099 90.01530318 -102.375 103.9375 C-102.24172716 116.88672429 -99.39921433 127.6926504 -93 139 C-92.34 139 -91.68 139 -91 139 C-90.835 139.680625 -90.67 140.36125 -90.5 141.0625 C-85.42485461 151.00132639 -73.03614515 156.53746484 -63 160 C-59.97528843 160.69222255 -57.09746321 160.9272408 -54 161 C-53.08734375 161.03867187 -52.1746875 161.07734375 -51.234375 161.1171875 C-34.18568141 161.51885829 -20.55332232 157.34068295 -7 147 C-6.113125 146.401875 -5.22625 145.80375 -4.3125 145.1875 C6.67016236 134.79849507 11.92234319 120.62405843 12.40673828 105.77978516 C12.60578923 89.00579367 8.63870473 74.51160759 -3 62 C-13.27846016 51.97223399 -28.88298151 46.957086 -43 46 C-43.66773438 45.9484375 -44.33546875 45.896875 -45.0234375 45.84375 C-58.39228478 45.26459416 -73.77550255 50.26608988 -84 59 Z " fill="#020002" transform="translate(1028,543)"/>
<path d="M0 0 C22.77 0 45.54 0 69 0 C69.33 58.74 69.66 117.48 70 178 C83.05041574 161.42125924 83.05041574 161.42125924 95.515625 144.40234375 C95.96550781 143.76095459 96.41539062 143.11956543 96.87890625 142.45874023 C97.78325203 141.16679469 98.68183708 139.8707949 99.57421875 138.57055664 C100.66688839 137.01133238 101.82815856 135.50063149 103 134 C103.66 134 104.32 134 105 134 C105.25007813 133.27683594 105.50015625 132.55367187 105.7578125 131.80859375 C107.10933066 128.75280269 108.73382512 126.61979 110.875 124.0625 C113.20354819 121.24040083 115.43082477 118.47537035 117.375 115.375 C117.91125 114.59125 118.4475 113.8075 119 113 C119.66 113 120.32 113 121 113 C121.0825 112.443125 121.165 111.88625 121.25 111.3125 C122.22701017 108.30005197 123.97374596 106.40617667 126 104 C126.33 103.34 126.66 102.68 127 102 C127.66 102 128.32 102 129 102 C129.28875 101.21625 129.5775 100.4325 129.875 99.625 C131 97 131 97 133 95 C135.55991902 94.81215518 138.0106964 94.74810195 140.57080078 94.77294922 C141.35137848 94.77265717 142.13195618 94.77236511 142.93618774 94.77206421 C145.52267478 94.77346032 148.10887564 94.78903458 150.6953125 94.8046875 C152.48607221 94.80841663 154.27683396 94.81126408 156.06759644 94.81326294 C160.78588472 94.82090725 165.50405031 94.84056255 170.22229004 94.8626709 C175.03489522 94.88311218 179.84752019 94.89226097 184.66015625 94.90234375 C194.10682481 94.92380772 203.55340221 94.95795325 213 95 C213.125 101.75 213.125 101.75 212 104 C211.34 104 210.68 104 210 104 C209.76023437 104.54914063 209.52046875 105.09828125 209.2734375 105.6640625 C207.69970178 108.55085379 205.74389392 110.86189325 203.625 113.375 C199.98530091 117.72645855 199.98530091 117.72645855 196.75 122.375 C195 125 195 125 192.70703125 127.26171875 C189.85516936 130.14650257 187.39267567 133.22060778 184.9375 136.4375 C181.07122391 141.43737168 177.08634322 146.29480548 172.9375 151.0625 C168.67384169 155.96980673 164.63654932 160.98989496 160.71850586 166.17602539 C157.76713911 170.06107796 154.67736618 173.79817096 151.5 177.5 C146.0820367 183.81599479 141.00914785 190.35540276 136 197 C135.3709375 197.67933594 134.741875 198.35867188 134.09375 199.05859375 C132.73777307 200.97705772 132.73777307 200.97705772 133.44140625 203.3125 C135.54328559 206.93679319 138.14276048 209.89276766 140.9375 213 C142.10985733 214.33030426 143.2817232 215.66104177 144.453125 216.9921875 C145.04416016 217.65959961 145.63519531 218.32701172 146.24414062 219.01464844 C148.91363156 222.03304391 151.5601328 225.06990116 154.1875 228.125 C154.64439209 228.64449219 155.10128418 229.16398438 155.57202148 229.69921875 C158.11977617 232.66909525 159.63181125 235.35792009 161 239 C163.01735205 240.34410262 163.01735205 240.34410262 165 241 C165 241.99 165 242.98 165 244 C165.59401611 244.25595947 166.18803223 244.51191895 166.80004883 244.77563477 C169.21843302 246.12156715 170.46762547 247.44510596 172.19921875 249.58984375 C172.76833984 250.29173828 173.33746094 250.99363281 173.92382812 251.71679688 C174.50583984 252.44962891 175.08785156 253.18246094 175.6875 253.9375 C176.28111328 254.66646484 176.87472656 255.39542969 177.48632812 256.14648438 C181.86420962 261.59262886 181.86420962 261.59262886 183 265 C183.99 265.33 184.98 265.66 186 266 C186.144375 266.639375 186.28875 267.27875 186.4375 267.9375 C186.80104993 270.20311706 186.80104993 270.20311706 189.0625 271.25 C190.0215625 271.62125 190.0215625 271.62125 191 272 C191 272.99 191 273.98 191 275 C191.59619141 275.25668457 192.19238281 275.51336914 192.80664062 275.77783203 C195.21105195 277.11760085 196.4018247 278.40038287 198.09375 280.5546875 C198.64933594 281.25207031 199.20492187 281.94945312 199.77734375 282.66796875 C200.34582031 283.39628906 200.91429688 284.12460937 201.5 284.875 C204.84776672 289.11854103 208.12655686 293.21791165 212 297 C212.66666667 298.33333333 213.33333333 299.66666667 214 301 C214.70125 301.70125 215.4025 302.4025 216.125 303.125 C218 305 218 305 218 307 C218.99 307.33 219.98 307.66 221 308 C222.60546875 309.6015625 222.60546875 309.6015625 224.1875 311.625 C224.71730469 312.27726562 225.24710938 312.92953125 225.79296875 313.6015625 C227.40363767 316.80205026 227.07968313 319.46145032 227 323 C216.49944493 323.32551114 206.00010374 323.573686 195.49551678 323.72537041 C190.61652686 323.79820642 185.74100633 323.89682912 180.86401367 324.05615234 C176.14985917 324.20917802 171.43902183 324.29215239 166.72257423 324.3282814 C164.93088355 324.35399568 163.13935906 324.4042208 161.3490963 324.48022079 C147.72879701 325.03500892 147.72879701 325.03500892 143.20419693 321.66077423 C139.9556977 318.4004394 137.51304848 314.72847082 135.14855385 310.79993057 C133.27502864 307.86387728 131.02453537 305.32237645 128.75 302.6875 C125.80373281 299.1688688 122.86408479 295.64852352 120 292.0625 C119.46375 291.39347656 118.9275 290.72445313 118.375 290.03515625 C117 288 117 288 116 285.30859375 C115.67 284.54675781 115.34 283.78492188 115 283 C114.01 282.67 113.02 282.34 112 282 C110.7109375 280.57421875 110.7109375 280.57421875 109.375 278.6875 C108.85164063 277.96433594 108.32828125 277.24117187 107.7890625 276.49609375 C107.19867187 275.67238281 106.60828125 274.84867188 106 274 C100.67036418 266.74066845 95.15915052 259.7146633 89.36328125 252.828125 C84.84257735 247.4182248 80.62731119 242.04551866 77 236 C76.278125 235.278125 75.55625 234.55625 74.8125 233.8125 C74.214375 233.214375 73.61625 232.61625 73 232 C73 231.34 73 230.68 73 230 C72.34 230 71.68 230 71 230 C70.67 229.34 70.34 228.68 70 228 C69.67 259.35 69.34 290.7 69 323 C46.23 323 23.46 323 0 323 C0 216.41 0 109.82 0 0 Z " fill="#020002" transform="translate(2159,438)"/>
<path d="M0 0 C0.6796582 0.24121582 1.35931641 0.48243164 2.05957031 0.73095703 C10.71630868 3.88773756 17.83879849 8.24775033 25 14 C25.92683594 14.69867187 26.85367188 15.39734375 27.80859375 16.1171875 C28.53175781 16.73851562 29.25492188 17.35984375 30 18 C30 18.66 30 19.32 30 20 C30.58910156 20.2475 31.17820312 20.495 31.78515625 20.75 C41.59747352 26.28781574 45.87231993 39.90310159 48.75 50.0625 C48.96092285 50.8062085 49.1718457 51.54991699 49.38916016 52.31616211 C52.14949296 62.60683677 52.14067502 72.85592175 52.11352539 83.43383789 C52.1132429 84.98194375 52.11340246 86.53004974 52.1139679 88.07815552 C52.11425347 92.25725324 52.10839566 96.43632194 52.10139394 100.61541295 C52.09512032 104.99160822 52.09455344 109.36780423 52.09336853 113.7440033 C52.090267 122.0204215 52.08206955 130.29682642 52.07201904 138.57323879 C52.06082124 148.00011033 52.05533823 157.42698252 52.05032361 166.85385907 C52.03988591 186.23591357 52.02230937 205.61795571 52 225 C43.54232666 225.02312659 35.08466644 225.0409167 26.62696934 225.05181217 C22.70011342 225.05704031 18.77327906 225.06413669 14.84643555 225.07543945 C11.05985743 225.0862708 7.2733001 225.09227736 3.48670769 225.09487724 C2.03895681 225.09673105 0.59120712 225.10035081 -0.85653496 225.10573006 C-2.87757135 225.11294367 -4.89862848 225.11340808 -6.91967773 225.11352539 C-8.64842384 225.11685631 -8.64842384 225.11685631 -10.41209412 225.12025452 C-13 225 -13 225 -14 224 C-14.15980437 221.55391002 -14.25929447 219.13268942 -14.31640625 216.68359375 C-14.3475779 215.58701195 -14.3475779 215.58701195 -14.37937927 214.46827698 C-14.44495024 212.12478344 -14.50379432 209.78117461 -14.5625 207.4375 C-14.60567808 205.85220145 -14.64929213 204.26691471 -14.69335938 202.68164062 C-14.8006392 198.78787963 -14.9018849 194.89400228 -15 191 C-15.40629639 191.54197021 -15.81259277 192.08394043 -16.23120117 192.64233398 C-16.76720947 193.35719971 -17.30321777 194.07206543 -17.85546875 194.80859375 C-18.38551514 195.51556396 -18.91556152 196.22253418 -19.46166992 196.95092773 C-32.13780084 213.83567092 -52.20332146 224.67891568 -72.9375 227.875 C-98.1567294 231.2983064 -124.10838416 228.63686491 -145 213 C-150.88036648 208.18801406 -156.40776201 203.07226649 -161 197 C-161.42796875 196.44441406 -161.8559375 195.88882813 -162.296875 195.31640625 C-166.75298974 188.92105639 -168.78582619 181.39193411 -171 174 C-171.27154907 173.11284302 -171.27154907 173.11284302 -171.54858398 172.20776367 C-172.55272074 167.29678007 -172.26662877 162.16756656 -172.29516602 157.16772461 C-172.30659019 155.78025029 -172.32688727 154.3928165 -172.35668945 153.00561523 C-172.70927932 136.55601754 -168.42105214 121.84980684 -158 109 C-157.319375 108.113125 -156.63875 107.22625 -155.9375 106.3125 C-152.33388019 102.01140539 -148.87377253 98.76918894 -144 96 C-143.4328125 95.58105469 -142.865625 95.16210938 -142.28125 94.73046875 C-117.54274037 76.69990116 -83.14240301 75.84366828 -54 80 C-42.8217158 81.7642203 -32.38927833 84.44886191 -22 89 C-23.68952538 73.66928851 -23.68952538 73.66928851 -32 61 C-32.61359375 60.34773437 -33.2271875 59.69546875 -33.859375 59.0234375 C-47.2878003 46.79211989 -67.46938045 47.8276002 -84.44891357 48.53683472 C-101.88354463 49.49410152 -119.39647969 53.6108616 -135.8828125 59.21484375 C-139.08413985 60.02119312 -140.87511484 59.94925757 -144 59 C-144.23074219 58.05382812 -144.46148438 57.10765625 -144.69921875 56.1328125 C-146.55086739 48.60091116 -148.48537188 41.09809439 -150.5625 33.625 C-150.87936768 32.48285034 -150.87936768 32.48285034 -151.20263672 31.31762695 C-152.32996544 27.28837281 -153.53102021 23.29596783 -154.8125 19.3125 C-156.02217387 15.3912538 -156.266653 12.08867936 -156 8 C-148.47883967 4.80817575 -140.88563012 2.13779677 -133 0 C-132.13407227 -0.23509277 -131.26814453 -0.47018555 -130.37597656 -0.71240234 C-89.27101923 -11.60127029 -40.59249771 -14.61872356 0 0 Z M-94 134 C-98.33787728 139.55573052 -99.56859769 145.06310824 -99 152 C-97.08006847 158.6387994 -93.92212012 163.38276462 -88 167 C-75.68081839 173.14973546 -62.97187934 173.00669882 -50 169 C-46.49743419 167.57723035 -43.25258837 165.92143646 -40 164 C-38.9275 163.38125 -37.855 162.7625 -36.75 162.125 C-33.34269086 159.4920793 -30.46165887 156.54409043 -28 153 C-28 152.34 -28 151.68 -28 151 C-27.34 151 -26.68 151 -26 151 C-25.13227971 148.92227529 -24.28126381 146.83756823 -23.4375 144.75 C-22.72400391 143.00976562 -22.72400391 143.00976562 -21.99609375 141.234375 C-20.81410903 137.50393939 -20.81410903 137.50393939 -22 134 C-24.35185759 132.77294387 -26.51924645 131.89075531 -29 131 C-29.72832031 130.6803125 -30.45664063 130.360625 -31.20703125 130.03125 C-37.38078898 127.46452238 -43.54981541 126.24713851 -50.125 125.25 C-50.95990967 125.12238281 -51.79481934 124.99476563 -52.6550293 124.86328125 C-67.08645134 122.83841723 -82.96418559 123.293941 -94 134 Z " fill="#020002" transform="translate(2067,536)"/>
<path d="M0 0 C0.59683594 0.53753906 1.19367188 1.07507813 1.80859375 1.62890625 C1.80859375 2.28890625 1.80859375 2.94890625 1.80859375 3.62890625 C2.36546875 3.69078125 2.92234375 3.75265625 3.49609375 3.81640625 C6.79802241 4.97654335 8.43767366 7.0845042 10.80859375 9.62890625 C11.69546875 10.47453125 12.58234375 11.32015625 13.49609375 12.19140625 C15.57790153 14.38574418 16.52264064 15.97126982 17.80859375 18.62890625 C18.38609375 19.18578125 18.96359375 19.74265625 19.55859375 20.31640625 C38.66258737 39.95106636 43.49602365 72.16945794 43.34936523 98.24169922 C42.7879668 120.89577723 37.44710922 142.63374099 24.80859375 161.62890625 C24.21046875 162.59828125 23.61234375 163.56765625 22.99609375 164.56640625 C17.36158746 172.45471505 11.37873415 179.55265165 3.80859375 185.62890625 C3.00421875 186.30953125 2.19984375 186.99015625 1.37109375 187.69140625 C-30.66307501 211.91236311 -69.91806908 217.34139781 -109.09936523 212.04858398 C-117.2090652 210.80736789 -124.54311983 208.56608088 -132.19140625 205.62890625 C-133.75137702 205.14156844 -135.31358665 204.66128016 -136.87890625 204.19140625 C-148.69341153 200.25323782 -158.54978296 193.2940827 -168.19140625 185.62890625 C-168.82175781 185.13648438 -169.45210937 184.6440625 -170.1015625 184.13671875 C-171.50467467 183.01555583 -172.85472348 181.82849335 -174.19140625 180.62890625 C-174.19140625 179.96890625 -174.19140625 179.30890625 -174.19140625 178.62890625 C-174.79283447 178.36408447 -175.3942627 178.0992627 -176.01391602 177.82641602 C-178.28215629 176.57899831 -179.42358066 175.4719319 -181.03125 173.46875 C-181.53470947 172.84419922 -182.03816895 172.21964844 -182.55688477 171.57617188 C-183.07565186 170.91294922 -183.59441895 170.24972656 -184.12890625 169.56640625 C-184.66378662 168.88900391 -185.19866699 168.21160156 -185.74975586 167.51367188 C-206.6251212 140.66704818 -210.33190642 104.7167286 -206.32299805 71.88549805 C-204.75836638 61.40488868 -202.03713956 49.56171221 -196.19140625 40.62890625 C-195.75828125 39.55640625 -195.32515625 38.48390625 -194.87890625 37.37890625 C-192.94018525 32.72395636 -190.09519118 28.72836733 -187.19140625 24.62890625 C-186.72734375 23.96890625 -186.26328125 23.30890625 -185.78515625 22.62890625 C-167.58908619 -2.44123473 -140.7306305 -18.40973882 -110.28515625 -23.40625 C-71.24027249 -29.11653282 -32.30781065 -23.76280278 0 0 Z M-126.859375 56.50390625 C-137.19191739 69.72956051 -139.73802776 87.35438898 -138.19140625 103.62890625 C-136.823801 112.9002842 -133.94611573 121.52251631 -129.19140625 129.62890625 C-128.53140625 129.62890625 -127.87140625 129.62890625 -127.19140625 129.62890625 C-126.96066406 130.35207031 -126.72992187 131.07523438 -126.4921875 131.8203125 C-122.49265359 140.45594278 -112.89075119 145.98451579 -104.44140625 149.51171875 C-89.49192478 154.65060301 -71.94837505 154.17699681 -57.22265625 148.48046875 C-43.57985109 141.69826963 -34.90259371 130.92922502 -29.30078125 116.9765625 C-23.87412189 100.60104465 -24.69086439 80.96977525 -32.24072266 65.421875 C-39.07679999 52.52918061 -50.21436231 42.02176142 -64.2890625 37.67578125 C-89.07888454 31.52164623 -110.27490992 37.86094785 -126.859375 56.50390625 Z " fill="#020002" transform="translate(1353.19140625,552.37109375)"/>
<path d="M0 0 C0.92039062 0.59941406 0.92039062 0.59941406 1.859375 1.2109375 C6.07329686 3.98914262 9.19638144 7.25920575 12.421875 11.1328125 C13.94916497 12.99885264 13.94916497 12.99885264 15.59375 14.5625 C17.39523782 16.40402088 18.54291589 18.49494908 19.76953125 20.74609375 C20.69555712 22.44233796 21.65758949 24.11900073 22.63671875 25.78515625 C37.60613249 51.98974819 37.64140746 83.30462436 37.40557575 112.7061038 C37.37993801 116.46554549 37.37817255 120.22501196 37.37347412 123.98452759 C37.36122201 131.04913749 37.32865148 138.11348885 37.28807616 145.17798674 C37.23426401 154.76276131 37.2132688 164.34761059 37.19006729 173.93249893 C37.15286862 188.95519156 37.07306347 203.97733963 37 219 C14.23 219 -8.54 219 -32 219 C-32.03867188 204.60826172 -32.03867188 204.60826172 -32.078125 189.92578125 C-32.10330349 183.83266212 -32.12948249 177.73957423 -32.16015625 171.64648438 C-32.20861428 161.9839706 -32.25309001 152.32156072 -32.27099609 142.65893555 C-32.28405891 135.62004603 -32.31114059 128.58136911 -32.35461307 121.54259938 C-32.37712462 117.82031733 -32.39291694 114.09829648 -32.39188385 110.37594032 C-32.39099065 106.2064662 -32.42141511 102.03775451 -32.45410156 97.8684082 C-32.4490712 96.65279709 -32.44404083 95.43718597 -32.43885803 94.18473816 C-32.59443269 81.28302169 -36.11552678 67.74426095 -45 58 C-45.99 57.34 -46.98 56.68 -48 56 C-48 55.34 -48 54.68 -48 54 C-49.2065625 53.62875 -49.2065625 53.62875 -50.4375 53.25 C-54 52 -54 52 -55.85302734 51.02709961 C-62.54076448 47.55391457 -68.74255138 47.2663547 -76.1875 47.3125 C-77.38624756 47.31902588 -78.58499512 47.32555176 -79.82006836 47.33227539 C-94.50813799 47.73038284 -103.83067521 53.50075436 -114 64 C-114.51046875 64.50144531 -115.0209375 65.00289062 -115.546875 65.51953125 C-129.23009972 80.174096 -127.4720282 103.02836859 -127.50611091 121.45872259 C-127.51559212 124.89671342 -127.54180198 128.33457931 -127.56611633 131.77249146 C-127.60952026 138.26020521 -127.63822649 144.74789435 -127.66143972 151.23570836 C-127.69130833 159.35904164 -127.74117493 167.48223767 -127.79101562 175.60546875 C-127.87967854 190.0702703 -127.9384739 204.53500113 -128 219 C-150.11 219 -172.22 219 -195 219 C-195 143.43 -195 67.86 -195 -10 C-173.88 -10 -152.76 -10 -131 -10 C-130.505 2.375 -130.505 2.375 -130 15 C-128.35 13.02 -126.7 11.04 -125 9 C-123.80631859 7.8374165 -122.5824532 6.70374676 -121.3125 5.625 C-120.73113281 5.12226562 -120.14976563 4.61953125 -119.55078125 4.1015625 C-118 3 -118 3 -116 3 C-116 2.34 -116 1.68 -116 1 C-85.35971436 -21.71693845 -31.02960941 -22.8446337 0 0 Z " fill="#020002" transform="translate(1627,542)"/>
<path d="M0 0 C22.11 0 44.22 0 67 0 C67 20.79 67 41.58 67 63 C85.81 63 104.62 63 124 63 C124 81.48 124 99.96 124 119 C105.19 119 86.38 119 67 119 C67.06182485 135.26091252 67.06182485 135.26091252 67.16015625 151.52148438 C67.20838904 158.15975149 67.2524722 164.79785413 67.27099609 171.4362793 C67.28621127 176.7922025 67.32074307 182.14769356 67.36830902 187.50342369 C67.38307276 189.54016029 67.39103812 191.57695861 67.39188385 193.61374855 C67.08504026 210.85896879 67.08504026 210.85896879 74.4375 226 C81.7344264 231.69516207 87.99788681 232.31139385 97 232 C97.88171875 231.97164062 98.7634375 231.94328125 99.671875 231.9140625 C105.67815885 231.55775753 110.51447076 230.30789395 116.00390625 227.83984375 C118 227 118 227 120 227 C122.35307617 233.73672569 124.41668015 240.44538305 126.08203125 247.3828125 C127.76460098 254.01285324 129.70344841 260.57242696 131.59765625 267.14453125 C131.83645508 267.97476807 132.07525391 268.80500488 132.32128906 269.66040039 C132.74848684 271.13300338 133.18185742 272.60384346 133.62402344 274.07202148 C134.75068121 277.84931613 135.19275526 281.0485171 135 285 C132.34445237 286.04139123 129.68316834 287.03324011 127 288 C126.12472656 288.32484375 125.24945312 288.6496875 124.34765625 288.984375 C98.48943661 297.81898355 65.13199303 299.15793268 39.75 288.1875 C23.95333203 280.08454597 11.04193302 265.72775171 5.27636719 248.88623047 C4.54145663 246.579566 3.85272729 244.26518834 3.1875 241.9375 C2.87679565 240.85855469 2.87679565 240.85855469 2.55981445 239.7578125 C0.06803217 230.43331748 -0.15090237 220.89778581 -0.11352539 211.29614258 C-0.11367142 210.28991852 -0.11381744 209.28369446 -0.1139679 208.24697876 C-0.11327825 204.96280668 -0.10553081 201.67869327 -0.09765625 198.39453125 C-0.0957887 196.10096772 -0.09436639 193.80740379 -0.09336853 191.51383972 C-0.08956993 185.50848265 -0.07976261 179.50315016 -0.06866455 173.49780273 C-0.05839303 167.3572625 -0.05385866 161.21671825 -0.04882812 155.07617188 C-0.03813771 143.05076876 -0.02056271 131.02539029 0 119 C-13.53 119 -27.06 119 -41 119 C-41 100.52 -41 82.04 -41 63 C-27.47 63 -13.94 63 0 63 C0 42.21 0 21.42 0 0 Z " fill="#020002" transform="translate(1731,471)"/>
<path d="M0 0 C1.1640625 2.14453125 1.1640625 2.14453125 2 4 C2.61875 4.268125 3.2375 4.53625 3.875 4.8125 C7.23267384 6.68884715 8.25040239 9.62577604 10 13 C10.61875 12.34 11.2375 11.68 11.875 11 C14 9 14 9 16 9 C16.268125 8.360625 16.53625 7.72125 16.8125 7.0625 C18 5 18 5 21 4 C21.37898437 3.09314453 21.37898437 3.09314453 21.765625 2.16796875 C23.6030598 -1.05917149 26.51246523 -2.15234663 29.75 -3.6875 C30.3584375 -3.99494141 30.966875 -4.30238281 31.59375 -4.61914062 C43.10431154 -10.2391477 61.12472497 -9.70990588 73.48828125 -6.8828125 C82.23097147 -3.80995404 90.17791613 0.71855473 96 8 C96.51949219 8.63164062 97.03898437 9.26328125 97.57421875 9.9140625 C109.13738949 25.46754657 108.15071651 44.50616997 108.09765625 62.88671875 C108.09578792 64.79913801 108.09436598 66.71155775 108.09336853 68.62397766 C108.08957603 73.62321324 108.07977416 78.62241911 108.06866455 83.62164307 C108.05656692 89.63823584 108.05203262 95.65483863 108.04621124 101.67144012 C108.03656025 110.78098065 108.01738094 119.89045619 108 129 C94.8 129 81.6 129 68 129 C67.95101563 123.55757812 67.90203125 118.11515625 67.8515625 112.5078125 C67.81614528 109.0442531 67.78016767 105.58071743 67.7421875 102.1171875 C67.68205769 96.62894221 67.62391782 91.14072984 67.578125 85.65234375 C67.54104385 81.22371031 67.49462435 76.79526124 67.44193649 72.36678696 C67.42351309 70.68368667 67.40836149 69.00054704 67.39665604 67.31738663 C67.82898447 49.41831471 67.82898447 49.41831471 60 34 C55.33587544 31.08982144 50.4301621 30.41819692 45 31 C38.78048379 32.56397191 33.27836859 35.3458753 29.77734375 40.9609375 C26.68640217 46.92124778 25.84869444 51.90399354 25.79467773 58.61425781 C25.78477814 59.37562042 25.77487854 60.13698303 25.76467896 60.92141724 C25.73315224 63.43195512 25.70834153 65.94251191 25.68359375 68.453125 C25.66301659 70.19619227 25.64201992 71.93925464 25.62062073 73.68231201 C25.56547871 78.26566592 25.51603477 82.84906428 25.46777344 87.43249512 C25.40865897 92.93419242 25.34247435 98.43580866 25.27747345 103.93743896 C25.17956296 112.29157638 25.09063919 120.64576627 25 129 C11.47 129 -2.06 129 -16 129 C-16.01417969 123.12445313 -16.02835938 117.24890625 -16.04296875 111.1953125 C-16.06304148 107.45827411 -16.08457364 103.72135697 -16.11132812 99.984375 C-16.15359452 94.06147562 -16.19064887 88.13888384 -16.19555664 82.21582031 C-16.19985599 77.43687115 -16.22845383 72.65861229 -16.27343178 67.879879 C-16.28635463 66.06281439 -16.29073306 64.24566695 -16.28615379 62.42856216 C-16.15525647 47.23688142 -16.15525647 47.23688142 -23.54362488 34.31204224 C-26.95898734 31.23515653 -31.83044534 30.06508664 -36.34375 29.9296875 C-41.37175192 30.36016712 -45.54786523 31.63764277 -50 34 C-50.66 34.99 -51.32 35.98 -52 37 C-52.66 37 -53.32 37 -54 37 C-54.268125 37.825 -54.53625 38.65 -54.8125 39.5 C-55.41794005 41.28445488 -56.02929331 43.06996748 -56.75701618 44.80814362 C-58.73865263 49.58890794 -59.44298834 53.8860853 -59.43237305 59.06835938 C-59.4425647 59.83030609 -59.45275635 60.59225281 -59.46325684 61.37728882 C-59.49316626 63.86618615 -59.50261853 66.35469727 -59.51171875 68.84375 C-59.52858186 70.58110816 -59.54673429 72.31845425 -59.56611633 74.05578613 C-59.61344538 78.60620346 -59.64336498 83.15657179 -59.66955566 87.70715332 C-59.70471271 93.17897692 -59.76167647 98.65061248 -59.81494904 104.12228394 C-59.89326236 112.41483148 -59.94401931 120.70713625 -60 129 C-73.2 129 -86.4 129 -100 129 C-100 84.78 -100 40.56 -100 -5 C-87.46 -5 -74.92 -5 -62 -5 C-61.505 -0.545 -61.505 -0.545 -61 4 C-59.6078125 2.6696875 -59.6078125 2.6696875 -58.1875 1.3125 C-43.1568388 -11.55350208 -15.5687144 -12.51485119 0 0 Z " fill="#9F9D9F" transform="translate(958,237)"/>
<path d="M0 0 C13.53 0 27.06 0 41 0 C41.33 33.66 41.66 67.32 42 102 C44.97 98.04 47.94 94.08 51 90 C51.66 90 52.32 90 53 90 C53.1546875 89.1028125 53.1546875 89.1028125 53.3125 88.1875 C54.09911856 85.68462276 55.13545831 84.78685245 57 83 C57.495 81.515 57.495 81.515 58 80 C58.66 80 59.32 80 60 80 C60.24878906 79.46503906 60.49757813 78.93007812 60.75390625 78.37890625 C62.29918158 75.42883517 64.09265412 72.70992202 65.9375 69.9375 C66.62714844 68.89464844 67.31679687 67.85179687 68.02734375 66.77734375 C69.6119725 64.54631199 71.05545938 62.87631113 73 61 C73.6305127 59.99106689 74.26102539 58.98213379 74.91064453 57.94262695 C76.66425877 55.84352985 77.61249654 55.08920871 80.30412292 54.46955872 C83.21594003 54.30518288 86.07307849 54.32591283 88.98828125 54.4140625 C90.04661667 54.42255219 91.10495209 54.43104187 92.19535828 54.43978882 C95.56878337 54.47332054 98.93979999 54.54860434 102.3125 54.625 C104.60217897 54.65509967 106.89189549 54.68247546 109.18164062 54.70703125 C114.78857929 54.77311078 120.39411758 54.87345767 126 55 C126 56.65 126 58.3 126 60 C125.01 60.495 125.01 60.495 124 61 C123.505 61.845625 123.01 62.69125 122.5 63.5625 C122.005 64.366875 121.51 65.17125 121 66 C120.34 66 119.68 66 119 66 C118.76152344 66.721875 118.52304688 67.44375 118.27734375 68.1875 C116.8086083 71.42141293 115.00599266 73.43212594 112.5625 76 C109.54776179 79.17863666 107.17229731 82.19684886 105 86 C104.02246356 87.02196992 103.0194119 88.01979625 102 89 C98.64770371 92.7526061 98.64770371 92.7526061 96 97 C95.34 97 94.68 97 94 97 C93.76023437 97.55042969 93.52046875 98.10085938 93.2734375 98.66796875 C91.15668704 102.54434919 88.14598049 105.70178541 85.2890625 109.05078125 C82.80648838 112.24931958 80.93238658 115.44846759 79 119 C79.76183594 119.88300781 80.52367187 120.76601563 81.30859375 121.67578125 C86.87225194 128.1374461 92.38717866 134.62673622 97.75390625 141.25390625 C99.41072412 143.27954619 101.08221557 145.28427337 102.77734375 147.27734375 C103.24124512 147.82503418 103.70514648 148.37272461 104.18310547 148.93701172 C105.49502653 150.48298878 106.81183649 152.02481318 108.12890625 153.56640625 C110 156 110 156 110 158 C110.66 158 111.32 158 112 158 C113.01351664 159.65848177 114.01120795 161.32665961 115 163 C115.721875 163.721875 116.44375 164.44375 117.1875 165.1875 C117.785625 165.785625 118.38375 166.38375 119 167 C119 167.66 119 168.32 119 169 C119.99 169.33 120.98 169.66 122 170 C122.2165625 170.9590625 122.2165625 170.9590625 122.4375 171.9375 C122.623125 172.618125 122.80875 173.29875 123 174 C123.60457031 174.29390625 124.20914062 174.5878125 124.83203125 174.890625 C127.3691321 176.18888922 128.53714526 177.55032064 130.25 179.8125 C131.03117187 180.81216797 131.03117187 180.81216797 131.828125 181.83203125 C133.22448731 184.41530153 133.08961528 186.10691999 133 189 C126.18743192 189.28020118 119.37635994 189.47205114 112.55932617 189.60424805 C110.24365733 189.65937917 107.92836821 189.73431054 105.61401367 189.82983398 C85.31770352 190.64622676 85.31770352 190.64622676 80.61645508 186.75073242 C78.30985149 183.94276642 76.64917762 181.22942209 75 178 C74.0321391 176.69402042 73.03719816 175.40719243 72.00390625 174.15234375 C71.18822455 173.08215918 70.37433036 172.01060909 69.5625 170.9375 C66.46246834 166.81595817 66.46246834 166.81595817 63 163 C63 162.01 63 161.02 63 160 C62.43796875 159.79375 61.8759375 159.5875 61.296875 159.375 C58.17576526 157.50658056 56.34696969 154.89614055 54.25 152 C53.83878906 151.4534375 53.42757813 150.906875 53.00390625 150.34375 C50 146.27200997 50 146.27200997 50 144 C49.34 144 48.68 144 48 144 C47.7525 143.4225 47.505 142.845 47.25 142.25 C45.84546937 139.47917453 45.84546937 139.47917453 42 136 C41.67 153.49 41.34 170.98 41 189 C27.47 189 13.94 189 0 189 C0 126.63 0 64.26 0 0 Z " fill="#9F9D9F" transform="translate(1237,177)"/>
<path d="M0 0 C22.99780101 -0.44422605 47.38866871 -0.87607932 65.21289062 15.93261719 C78.48158652 30.02527921 77.51669393 47.45265717 77.41992188 65.57324219 C77.41618513 67.64117292 77.41334129 69.70910543 77.41134644 71.77703857 C77.40376204 77.18236298 77.38415895 82.58757748 77.36193848 87.99285889 C77.34136733 93.52354445 77.33232077 99.05424802 77.32226562 104.58496094 C77.30090751 115.40923539 77.2657685 126.2333999 77.22460938 137.05761719 C64.35460938 137.05761719 51.48460937 137.05761719 38.22460938 137.05761719 C37.72960938 128.14761719 37.72960938 128.14761719 37.22460938 119.05761719 C35.77054688 120.82105469 35.77054688 120.82105469 34.28710938 122.62011719 C25.72756539 132.27091778 14.3809905 139.16930599 1.20092773 140.21875 C-13.09225308 140.49968099 -24.1010766 139.15177248 -36.77539062 132.05761719 C-37.61070313 131.6103125 -38.44601562 131.16300781 -39.30664062 130.70214844 C-46.67661151 125.79272163 -51.91527673 117.10308905 -53.96289062 108.62011719 C-56.31959743 95.33867629 -55.87358878 81.53229898 -48.08789062 70.18261719 C-44.46171431 65.58549749 -40.78058371 62.08120037 -35.77539062 59.05761719 C-35.06125 58.60773438 -34.34710937 58.15785156 -33.61132812 57.69433594 C-15.91918285 47.66484221 8.13708936 49.41873273 27.22460938 54.05761719 C28.90781317 54.68135368 30.58348602 55.33033709 32.22460938 56.05761719 C31.86275162 49.70759731 30.96655818 45.03251129 26.28710938 40.49511719 C15.79110704 32.335268 0.1795409 34.34846203 -12.27539062 35.80761719 C-18.93312905 36.77678164 -25.27732362 38.38834466 -31.72851562 40.25292969 C-34.77539062 41.05761719 -34.77539062 41.05761719 -37.77539062 41.05761719 C-45.77539062 16.14062114 -45.77539062 16.14062114 -45.77539062 10.05761719 C-31.21590336 3.35800736 -15.92547239 0.33061326 0 0 Z M-8.77539062 84.05761719 C-11.16821386 87.90694151 -11.17323187 91.6017953 -10.77539062 96.05761719 C-9.37370118 99.82465756 -7.5164836 101.42829019 -4.08789062 103.30761719 C2.87989106 106.44120822 8.98205183 106.72245621 16.22460938 104.05761719 C23.82252645 100.96260043 28.78940523 97.92802548 32.53710938 90.43261719 C33.40998143 87.82932519 33.40998143 87.82932519 33.22460938 84.05761719 C19.41762026 78.14443682 4.14879321 74.8260573 -8.77539062 84.05761719 Z " fill="#9F9D9F" transform="translate(1426.775390625,228.9423828125)"/>
<path d="M0 0 C0 0.66 0 1.32 0 2 C0.58910156 2.2371875 1.17820312 2.474375 1.78515625 2.71875 C9.4031442 7.12562839 14.49527518 19.06281053 16.97265625 27.19140625 C18.81272268 34.98815284 19.27204937 42.51332246 19.3125 50.5 C19.31805908 51.43166992 19.32361816 52.36333984 19.3293457 53.32324219 C19.27084391 58.86941201 18.59908873 62.40318944 17 68 C-13.36 68 -43.72 68 -75 68 C-71.52251653 76.2735585 -71.52251653 76.2735585 -66 82 C-65.35998047 82.72509766 -65.35998047 82.72509766 -64.70703125 83.46484375 C-57.88951032 89.59593236 -47.67774944 90.81058779 -38.90625 90.484375 C-28.76298857 89.22661058 -19.39689257 85.98800417 -11.015625 80.0390625 C-9 79 -9 79 -6.9765625 79.01953125 C-4.10879244 80.44208122 -2.92452812 82.43547803 -1.125 85.0625 C-0.4340625 86.05378906 0.256875 87.04507813 0.96875 88.06640625 C1.6390625 89.03449219 2.309375 90.00257813 3 91 C4.11675436 92.50614897 5.24068036 94.00703518 6.375 95.5 C11.01557936 101.61830574 11.01557936 101.61830574 10.875 105.0625 C10 108 10 108 8.1875 109.125 C7.465625 109.41375 6.74375 109.7025 6 110 C5.41863281 110.61617188 4.83726563 111.23234375 4.23828125 111.8671875 C-7.57841698 123.12707796 -27.33902864 125.21151129 -42.78271484 125.29516602 C-44.24668094 125.30661081 -45.71060783 125.32694195 -47.17431641 125.35668945 C-57.55012293 125.56683534 -66.11891378 124.46174938 -76 121 C-76.93626221 120.67813721 -77.87252441 120.35627441 -78.8371582 120.0246582 C-94.34337323 114.50156572 -105.97372784 103.78545793 -113.8125 89.5 C-122.86422526 70.42524563 -122.02475885 46.48273167 -115.96875 26.6171875 C-112.41724707 17.2345007 -106.3300917 9.7662385 -99 3 C-98.071875 2.071875 -97.14375 1.14375 -96.1875 0.1875 C-70.26047134 -21.8077375 -25.85235382 -20.76439057 0 0 Z M-69 26 C-73.51396738 31.43304837 -74.07222251 34.57778012 -75 42 C-57.84 42 -40.68 42 -23 42 C-23 34.21137248 -24.26715597 30.91355353 -29 25 C-39.86522806 15.70207579 -58.60909528 16.22760151 -69 26 Z " fill="#9F9D9F" transform="translate(1202,244)"/>
<path d="M0 0 C13.21713149 -0.31193183 25.51848917 0.73893935 35.62890625 10.3046875 C36.18320313 10.90023437 36.7375 11.49578125 37.30859375 12.109375 C36.90418802 13.48803091 36.48430138 14.8621472 36.05859375 16.234375 C35.8265625 17.00007813 35.59453125 17.76578125 35.35546875 18.5546875 C34.05959916 21.71699612 32.21152094 24.27052537 30.30859375 27.109375 C28.83382494 29.82117852 27.4749595 32.58560126 26.12109375 35.359375 C25.76595703 36.07867187 25.41082031 36.79796875 25.04492188 37.5390625 C24.12950889 39.39420684 23.21872125 41.25163191 22.30859375 43.109375 C21.81359375 44.099375 21.81359375 44.099375 21.30859375 45.109375 C18.80374892 44.11460657 16.30946351 43.10975148 13.8359375 42.0390625 C4.10394688 38.0758084 -4.54466697 38.01315213 -14.53515625 41.16015625 C-16.8804355 42.19258896 -18.65532003 43.56936911 -20.69140625 45.109375 C-21.35140625 45.109375 -22.01140625 45.109375 -22.69140625 45.109375 C-23.35140625 46.759375 -24.01140625 48.409375 -24.69140625 50.109375 C-25.35140625 50.109375 -26.01140625 50.109375 -26.69140625 50.109375 C-30.08612052 59.59800269 -30.16547012 68.87788771 -30.203125 78.80859375 C-30.22000216 80.49682393 -30.2381564 82.18504178 -30.25752258 83.87324524 C-30.30469946 88.28059025 -30.33471658 92.68788524 -30.36096191 97.09539795 C-30.39621679 102.40293516 -30.45313608 107.7102804 -30.50635529 113.01766205 C-30.5844896 121.04820741 -30.63538144 129.07850807 -30.69140625 137.109375 C-44.22140625 137.109375 -57.75140625 137.109375 -71.69140625 137.109375 C-71.69140625 92.889375 -71.69140625 48.669375 -71.69140625 3.109375 C-58.16140625 3.109375 -44.63140625 3.109375 -30.69140625 3.109375 C-30.19640625 8.059375 -30.19640625 8.059375 -29.69140625 13.109375 C-28.99660156 12.36171875 -28.30179688 11.6140625 -27.5859375 10.84375 C-19.5771068 3.27805298 -10.70745735 0.317258 0 0 Z " fill="#9F9D9F" transform="translate(1593.69140625,228.890625)"/>
<path d="M0 0 C13.53 0 27.06 0 41 0 C41 44.55 41 89.1 41 135 C27.47 135 13.94 135 0 135 C0 90.45 0 45.9 0 0 Z " fill="#9F9C9F" transform="translate(1638,231)"/>
<path d="M0 0 C4.12499735 2.69626825 6.40441604 5.87433 8.19921875 10.4375 C10.02885823 19.30084334 9.98667462 27.96067694 5.13671875 35.75 C-0.14992764 40.58671904 -6.32349924 42.99561332 -13.46484375 43.546875 C-19.53922756 43.26245569 -27.16269907 41.18061121 -31.46875 36.703125 C-34.54119962 32.62758772 -36.586605 29.68481802 -36.80078125 24.4375 C-36.83816406 23.74785156 -36.87554688 23.05820313 -36.9140625 22.34765625 C-37.13435933 15.56483274 -36.38929829 10.01884019 -32.80078125 4.1875 C-24.61865982 -4.54327681 -10.27689075 -4.76609426 0 0 Z " fill="#9E9D9D" transform="translate(1672.80078125,177.5625)"/>
<path d="M0 0 C0.33 0.66 0.66 1.32 1 2 C-1.8689341 5.50647501 -4.7317654 8.85281112 -8 12 C-8.99 11.67 -9.98 11.34 -11 11 C-7.33333333 7.33333333 -3.66666667 3.66666667 0 0 Z " fill="#3479EB" transform="translate(256,280)"/>
</svg>
